<?xml version="1.0" encoding="UTF-8"?>
<svg width="100%" height="100%" viewBox="0 0 16 21" version="1.1" xmlns="http://www.w3.org/2000/svg" xmlns:xlink="http://www.w3.org/1999/xlink">
    <!-- Generator: Sketch 52.6 (67491) - http://www.bohemiancoding.com/sketch -->
    <title>Group</title>
    <desc>Created with Sketch.</desc>
    <g id="Page-1" stroke="none" stroke-width="1" fill="none" fill-rule="evenodd">
        <g id="Desktop-HD-Copy" transform="translate(-45.000000, -321.000000)" fill="#FFFFFF" fill-rule="nonzero">
            <g id="Group" transform="translate(45.000000, 321.000000)">
                <path d="M9.90361446,0.982876712 C9.46987952,0.359589041 8.74698795,0 7.97590361,0 C7.20481928,0 6.48192771,0.359589041 6.04819277,0.982876712 C3.30120482,4.86643836 0,10.1164384 0,13.0410959 C0,17.4280822 3.59036145,21 8,21 C12.4096386,21 16,17.4280822 16,13.0410959 C15.9759036,10.1164384 12.6746988,4.86643836 9.90361446,0.982876712 Z M7.97590361,19.5376712 C4.36144578,19.5376712 1.42168675,16.6130137 1.42168675,13.0171233 C1.42168675,11.0753425 3.54216867,6.9760274 7.22891566,1.79794521 C7.39759036,1.55821918 7.68674699,1.41438356 7.97590361,1.41438356 C8.26506024,1.41438356 8.55421687,1.55821918 8.72289157,1.79794521 C12.4096386,6.9760274 14.5301205,11.0753425 14.5301205,13.0171233 C14.5301205,16.6369863 11.5903614,19.5376712 7.97590361,19.5376712 Z" id="Shape"></path>
                <path d="M7.79101389,0.743141777 L8.75485907,0.743141777 L10.0172444,2.75828793 L12.3277256,6.40258429 L14.3740078,10.4878226 L15.4330928,13.6192893 L14.3740078,16.5538659 L11.6061009,19.3826714 L7.79101389,20.3240803 L4.1799141,19.3826714 L1.59264226,17.19124 L0.568814314,13.6192893 L1.59264226,10.4878226 L4.94480882,4.10538177 L7.79101389,0.743141777 Z M7.59020461,16.0951113 C6.09765775,15.8746292 4.8917138,14.429587 4.71693981,12.593642 C4.64261459,11.9774485 4.20493803,11.5 3.61167363,11.5 C3.28426101,11.5 2.99578091,11.6461082 2.77434876,11.9077915 C2.5631056,12.2039974 2.47308781,12.501864 2.50693091,12.8218239 C2.7632075,15.7688408 4.7226375,18.1253611 7.27184229,18.4948298 C7.37610591,18.5 7.37610591,18.5 7.40865143,18.5 C7.71231292,18.5 8.00160607,18.3553585 8.20258227,18.1178495 C8.39247392,17.89344 8.49447086,17.597575 8.49447086,17.2820513 C8.56728711,16.7551185 8.17784779,16.1942129 7.60037128,16.0967203 L7.59020461,16.0951113 Z" id="Combined-Shape"></path>
            </g>
        </g>
    </g>
</svg>