<?xml version="1.0" encoding="UTF-8"?>
<svg width="45px" height="45px" viewBox="0 0 45 45" version="1.1" xmlns="http://www.w3.org/2000/svg" xmlns:xlink="http://www.w3.org/1999/xlink">
    <!-- Generator: Sketch 52.6 (67491) - http://www.bohemiancoding.com/sketch -->
    <title>Group 3</title>
    <desc>Created with Sketch.</desc>
    <defs>
        <polygon id="path-1" points="0 0 45 0 45 45 0 45"></polygon>
    </defs>
    <g id="Page-1" stroke="none" stroke-width="1" fill="none" fill-rule="evenodd">
        <g id="Desktop-HD-Copy-2" transform="translate(-44.000000, -51.000000)">
            <g id="Group-3" transform="translate(44.000000, 51.000000)">
                <mask id="mask-2" fill="#C6C8DC">
                    <use xlink:href="#path-1"></use>
                </mask>
                <g id="Clip-2"></g>
                <path d="M27.4624333,26.8695785 C27.1960864,27.1359322 26.8459321,27.2691091 26.4980738,27.2691091 C26.1479195,27.2691091 25.7989132,27.1359322 25.5325663,26.8695785 C24.9987244,26.3368711 24.9987244,25.4723696 25.5325663,24.9396622 L27.7620736,22.7089499 L25.5325663,20.4793857 C24.9987244,19.9466782 24.9987244,19.0821768 25.5325663,18.5494693 C26.0652601,18.0167619 26.9297395,18.0167619 27.4624333,18.5494693 L29.6919407,20.7790336 L31.9225961,18.5494693 C32.4552899,18.0167619 33.3197694,18.0167619 33.8524632,18.5494693 C34.385157,19.0821768 34.385157,19.9466782 33.8524632,20.4793857 L31.6229558,22.7089499 L33.8524632,24.9396622 C34.385157,25.4723696 34.385157,26.3368711 33.8524632,26.8695785 C33.5849682,27.1359322 33.2359619,27.2691091 32.8869556,27.2691091 C32.5379493,27.2691091 32.188943,27.1359322 31.9225961,26.8695785 L29.6919407,24.6400143 L27.4624333,26.8695785 Z M19.1861622,24.9568834 C19.7165599,25.4918869 19.7131158,26.3563884 19.1769778,26.8867997 C18.9094829,27.1520053 18.5604766,27.2840341 18.2103222,27.282886 C17.8613159,27.2805899 17.5123096,27.1462649 17.2471107,26.8787631 L15.0267878,24.6400143 L12.786948,26.8603939 C12.519453,27.1255996 12.1704467,27.2576283 11.8202924,27.2553322 C11.4712861,27.2541841 11.1234278,27.1198592 10.8582289,26.8512093 C10.3266832,26.3173538 10.3301273,25.4528523 10.8651172,24.9224411 L13.104957,22.7009134 L10.884634,20.4621645 C10.3530882,19.9271609 10.3576804,19.0626595 10.8926704,18.5322482 C11.4276603,18.0006888 12.2921397,18.0041331 12.8225374,18.5402847 L15.0428604,20.7790336 L17.2827002,18.5586539 C17.8176901,18.0282427 18.6810215,18.0316869 19.2125673,18.5666905 C19.742965,19.1016941 19.7395209,19.9661955 19.204531,20.4966068 L16.9646912,22.7169864 L19.1861622,24.9568834 Z M32.5586142,42.5982243 L32.5586142,38.4008572 C32.5586142,37.3733289 33.3909483,36.5409736 34.4184504,36.5409736 L40.0519172,36.5409736 C43.1401638,32.6891775 45,27.8110011 45,22.5 C45,10.0938871 34.9063704,0 22.500574,0 C10.0936296,0 0,10.0938871 0,22.5 C0,27.8351107 1.87361278,32.7339524 4.98711636,36.5949332 L10.3817894,36.5949332 C11.5998673,36.5949332 12.5871878,37.5822788 12.5871878,38.8003878 L12.5871878,42.668257 C13.983213,43.3571028 15.4561574,43.902439 16.9968365,44.2916369 L16.9968365,40.172339 C16.9968365,39.2205837 17.7671761,38.4502245 18.7189071,38.4502245 C19.66949,38.4502245 20.4409776,39.2205837 20.4409776,40.172339 L20.4409776,44.8966731 C21.1194734,44.9586693 21.8048575,45 22.500574,45 C23.3386484,45 24.1640942,44.9460404 24.9792076,44.8564905 L24.9792076,40.172339 C24.9792076,39.2205837 25.7495472,38.4502245 26.7012782,38.4502245 C27.6530092,38.4502245 28.4233487,39.2205837 28.4233487,40.172339 L28.4233487,44.1837177 C29.8652958,43.7887795 31.2463964,43.2572201 32.5586142,42.5982243 Z" id="Fill-1" fill="#FFFFFF" mask="url(#mask-2)"></path>
            </g>
        </g>
    </g>
</svg>